<?xml version="1.0" standalone="no"?>
<!DOCTYPE svg PUBLIC "-//W3C//DTD SVG 20010904//EN"
        "http://www.w3.org/TR/2001/REC-SVG-20010904/DTD/svg10.dtd">
<svg version="1.0" xmlns="http://www.w3.org/2000/svg"
     width="251.000000pt" height="251.000000pt" viewBox="0 0 102.000000 251.000000"
     preserveAspectRatio="xMidYMid meet">
    <metadata>
        Created by potrace 1.14, written by Peter Selinger 2001-2017
    </metadata>
    <g transform="translate(0.000000,251.000000) scale(0.100000,-0.100000)"
       fill="#019f8e" stroke="none">
        <path fill="#00FFAB" d="M1475 1610 c-3 -5 -14 -10 -24 -10 -10 0 -24 -7 -31 -15 -7 -8 -16
        -12 -21 -9 -5 3 -9 -2 -9 -11 0 -9 -4 -13 -10 -10 -9 6 -14 -8 -11 -27 0 -5
        -5 -7 -11 -5 -7 1 -12 -4 -10 -10 1 -7 -2 -13 -8 -13 -5 0 -10 -9 -10 -20 0
        -11 -6 -20 -12 -20 -9 0 -8 -4 2 -10 10 -6 11 -10 3 -10 -9 0 -13 -19 -13 -61
        0 -37 4 -58 10 -54 6 3 10 -3 10 -15 0 -12 7 -28 15 -37 8 -8 13 -19 10 -24
        -4 -5 1 -9 10 -9 9 0 13 -4 10 -10 -3 -5 1 -10 10 -10 9 0 13 -4 10 -10 -3 -5
        3 -10 14 -10 12 0 21 -4 21 -10 0 -5 9 -10 20 -10 11 0 20 -4 20 -10 0 -16
        123 -12 158 6 18 8 34 20 37 25 4 5 11 7 16 4 5 -4 9 2 9 11 0 10 3 15 6 11 9
        -9 34 19 34 37 0 9 5 16 10 16 6 0 10 9 10 20 0 11 5 20 10 20 6 0 10 30 10
        71 0 44 -4 68 -10 64 -6 -4 -10 5 -10 19 0 14 -4 26 -10 26 -5 0 -10 9 -10 21
        0 11 -4 17 -10 14 -5 -3 -10 1 -10 9 0 9 -6 16 -13 16 -7 0 -23 9 -35 20 -12
        11 -28 20 -37 20 -8 0 -15 5 -15 10 0 6 -28 10 -64 10 -36 0 -68 -4 -71 -10z"/>
        <path d="M2070 1609 c0 -5 -9 -9 -20 -9 -11 0 -20 -4 -20 -10 0 -5 -9 -10 -21
        -10 -11 0 -17 -4 -14 -10 3 -5 1 -10 -5 -10 -17 0 -40 -26 -40 -44 0 -9 -4
        -16 -10 -16 -5 0 -10 -9 -10 -20 0 -11 -4 -20 -8 -20 -5 0 -10 -31 -11 -70 -1
        -44 2 -70 8 -70 6 0 11 -7 11 -16 0 -8 7 -22 15 -31 8 -8 13 -19 10 -24 -4 -5
        1 -9 10 -9 9 0 13 -4 10 -10 -3 -5 1 -10 10 -10 9 0 13 -4 10 -10 -3 -5 3 -10
        14 -10 12 0 21 -4 21 -10 0 -5 15 -10 33 -11 27 0 29 -2 12 -9 -14 -6 2 -9 52
        -9 39 -1 75 4 78 9 3 6 14 10 24 10 10 0 24 7 31 15 7 9 15 14 17 11 7 -7 53
        44 53 59 0 8 5 15 10 15 6 0 10 9 10 19 0 11 4 22 8 25 13 8 15 136 3 136 -6
        0 -11 9 -11 20 0 11 -4 20 -10 20 -5 0 -10 9 -10 21 0 11 -4 17 -10 14 -5 -3
        -10 1 -10 9 0 9 -7 16 -16 16 -8 0 -12 5 -9 10 3 6 -3 10 -14 10 -12 0 -21 5
        -21 10 0 6 -9 10 -20 10 -11 0 -20 4 -20 9 0 5 -31 9 -70 9 -38 0 -70 -4 -70
        -9z"/>
        <path fill="#F0F0F0" d="M290 1593 c0 -7 -9 -13 -20 -13 -11 0 -20 -4 -20 -10 0 -5 -9 -10
        -21 -10 -11 0 -17 -4 -14 -10 3 -5 0 -10 -9 -10 -8 0 -20 -13 -28 -30 -7 -16
        -16 -30 -20 -30 -5 0 -8 -9 -8 -20 0 -11 -5 -20 -11 -20 -6 0 -9 -26 -8 -70 1
        -38 6 -70 11 -70 4 0 8 -7 8 -15 0 -9 9 -25 20 -37 11 -12 20 -28 20 -35 0 -7
        7 -13 16 -13 8 0 12 -4 9 -10 -3 -5 3 -10 14 -10 12 0 21 -4 21 -10 0 -5 9
        -10 20 -10 11 0 20 -4 20 -8 0 -12 115 -15 137 -3 10 5 32 15 50 22 17 7 29
        17 27 21 -3 4 2 8 10 8 9 0 16 7 16 16 0 8 5 12 10 9 6 -3 10 3 10 14 0 12 5
        21 10 21 6 0 10 9 10 19 0 11 5 23 10 26 12 8 11 135 -1 135 -5 0 -9 7 -9 16
        0 8 -7 22 -15 31 -8 8 -12 19 -9 25 4 7 2 8 -4 4 -7 -4 -12 -1 -12 9 0 9 -4
        13 -10 10 -5 -3 -10 1 -10 10 0 9 -4 14 -9 10 -5 -3 -16 2 -24 10 -9 8 -23 15
        -31 15 -9 0 -16 3 -16 8 0 4 -27 8 -60 10 -44 2 -60 -1 -60 -10 0 -9 -3 -9
        -10 2 -6 10 -10 11 -10 3z"/>
        <path fill="#CCCCCC" d="M903 1593 c3 -5 -7 -9 -21 -10 -15 0 -28 -6 -30 -12 -2 -6 -13 -11
        -23 -11 -11 0 -17 -4 -14 -10 3 -5 -1 -10 -9 -10 -9 0 -16 -7 -16 -16 0 -8 -4
        -12 -10 -9 -5 3 -10 -3 -10 -14 0 -12 -4 -21 -10 -21 -5 0 -10 -9 -10 -20 0
        -11 -5 -20 -10 -20 -6 0 -10 -28 -9 -70 1 -38 5 -70 10 -70 5 0 9 -7 9 -15 0
        -9 9 -25 20 -37 11 -12 20 -28 20 -35 0 -7 7 -13 15 -13 9 0 18 -7 21 -15 4
        -8 10 -12 15 -9 5 3 9 0 9 -5 0 -6 9 -11 20 -11 11 0 20 -4 20 -10 0 -6 30
        -10 70 -10 40 0 70 4 70 10 0 6 6 10 14 10 21 0 67 26 59 33 -3 4 1 7 10 7 10
        0 17 7 17 16 0 8 5 12 10 9 6 -3 10 3 10 14 0 12 5 21 10 21 6 0 10 9 10 20 0
        11 4 20 9 20 4 0 9 32 10 70 1 43 -2 70 -9 70 -5 0 -10 9 -10 20 0 11 -4 20
        -10 20 -5 0 -10 9 -10 21 0 11 -4 17 -10 14 -5 -3 -10 1 -10 10 0 9 -4 13 -10
        10 -5 -3 -10 1 -10 9 0 9 -9 16 -20 16 -11 0 -20 5 -20 10 0 6 -9 10 -20 10
        -11 0 -20 5 -20 10 0 6 -29 10 -66 10 -36 0 -63 -3 -61 -7z"/>
    </g>
</svg>

